<?xml version="1.0" encoding="UTF-8" standalone="no"?>
<svg
   xmlns:dc="http://purl.org/dc/elements/1.1/"
   xmlns:cc="http://creativecommons.org/ns#"
   xmlns:rdf="http://www.w3.org/1999/02/22-rdf-syntax-ns#"
   xmlns:svg="http://www.w3.org/2000/svg"
   xmlns="http://www.w3.org/2000/svg"
   xmlns:sodipodi="http://sodipodi.sourceforge.net/DTD/sodipodi-0.dtd"
   xmlns:inkscape="http://www.inkscape.org/namespaces/inkscape"
   version="1.1"
   id="svg2"
   viewBox="0 0 140 80"
   height="80"
   width="140"
   inkscape:version="0.91 r13725"
   sodipodi:docname="default.svg">
  <sodipodi:namedview
     pagecolor="#ffffff"
     bordercolor="#666666"
     borderopacity="1"
     objecttolerance="10"
     gridtolerance="10"
     guidetolerance="10"
     inkscape:pageopacity="0"
     inkscape:pageshadow="2"
     inkscape:window-width="640"
     inkscape:window-height="480"
     id="namedview10"
     showgrid="false"
     inkscape:zoom="5.5071429"
     inkscape:cx="40.583658"
     inkscape:cy="40"
     inkscape:current-layer="svg2" />
  <metadata
     id="metadata10">
    <rdf:RDF>
      <cc:Work
         rdf:about="">
        <dc:format>image/svg+xml</dc:format>
        <dc:type
           rdf:resource="http://purl.org/dc/dcmitype/StillImage" />
        <dc:title></dc:title>
      </cc:Work>
    </rdf:RDF>
  </metadata>
  <defs
     id="defs8" />
  <g
     transform="translate(30,0)"
     id="g4150"
     style="fill:#ffffff;fill-opacity:1">
    <circle
       style="opacity:1;fill:#ffffff;fill-opacity:1;fill-rule:nonzero;stroke:#000000;stroke-width:2;stroke-linecap:butt;stroke-linejoin:miter;stroke-miterlimit:4;stroke-dasharray:none;stroke-dashoffset:0;stroke-opacity:1"
       id="path4133"
       cx="40"
       cy="40.024044"
       r="37.802219" />
    <circle
       style="opacity:1;fill:#ffffff;fill-opacity:1;fill-rule:nonzero;stroke:#000000;stroke-width:1.99999988;stroke-linecap:butt;stroke-linejoin:miter;stroke-miterlimit:4;stroke-dasharray:none;stroke-dashoffset:0;stroke-opacity:1"
       id="path4133-3"
       cx="39.86314"
       cy="40.11541"
       r="29.228552" />
  </g>
  <path
     id="path4154"
     d="M 13.5,30 13.5,70 C 13.5,72.239947 18.5,72.239947 18.5,70 L 18.5,30 C 18.5,28.75 22.25,27.5 22.25,26.25 L 22.25,12.5 C 22.25,11.710031 19.055631,11.687677 19.052427,12.5 L 19.008233,23.705806 C 19.006374,24.177207 17.251703,24.21499 17.25,23.75 L 17.25,12.5 C 17.25,11.725197 14.734375,11.783579 14.75,12.5 L 14.75,23.75 C 14.75,24.28033 13.058485,24.302427 13.058058,23.772097 L 13.048971,12.471302 C 13.04838,11.736136 9.75,11.770796 9.75,12.5 L 9.75,26.25 C 9.75,27.542339 13.5,28.75 13.5,30 Z"
     style="fill:#ffffff;fill-rule:evenodd;stroke:#000000;stroke-width:1px;stroke-linecap:butt;stroke-linejoin:miter;stroke-opacity:1;fill-opacity:1" />
  <path
     id="path4154-6"
     d="M 120.75,70.71047 C 120.75,72.95041 125.75,72.95041 125.75,70.71047 L 125.75,36.022966 C 125.75,34.772966 129.5,35.210466 129.5,26.960466 129.38025,21.331452 129.29392,10.703568 120.88113,11.26516 120.11737,11.304559 120.75,70.71047 120.75,70.71047 Z"
     style="fill:#ffffff;fill-rule:evenodd;stroke:#000000;stroke-width:1px;stroke-linecap:butt;stroke-linejoin:miter;stroke-opacity:1;fill-opacity:1" />
</svg>
